<svg width="9" height="13" viewBox="0 0 9 13" fill="none" xmlns="http://www.w3.org/2000/svg">
<path d="M8.65669 6.67407C8.65413 5.94866 8.37045 5.26706 7.85722 4.75385C7.40227 4.29891 6.81499 4.02449 6.18219 3.96622V3.00058C6.18219 2.38391 5.94053 1.80263 5.50173 1.36382C5.06292 0.925009 4.48163 0.68335 3.86494 0.68335H2.63509C2.01842 0.68335 1.43714 0.925013 0.998336 1.36382C0.559535 1.80263 0.317871 2.38391 0.317871 3.00058V12.4414C0.317871 12.5822 0.432061 12.6964 0.572918 12.6964C0.713776 12.6964 0.827965 12.5822 0.827965 12.4414V3.00058C0.827965 2.00412 1.63864 1.19344 2.63509 1.19344H3.86494C4.86141 1.19344 5.6721 2.00412 5.6721 3.00058V3.96622C5.03931 4.02449 4.45203 4.29891 3.99709 4.75385C3.48154 5.26939 3.19762 5.95484 3.19762 6.68394C3.19762 6.82479 3.31181 6.93898 3.45267 6.93898H8.40166C8.40171 6.93898 8.40178 6.93898 8.40182 6.93898C8.54269 6.93898 8.65687 6.82479 8.65687 6.68394C8.65687 6.68064 8.65681 6.67734 8.65669 6.67407ZM3.72227 6.42889C3.84921 5.3248 4.78962 4.46449 5.92714 4.46449C7.06469 4.46449 8.00511 5.3248 8.13205 6.42889H3.72227Z" fill="#365196"/>
</svg>
