<svg width="130" height="35" viewBox="0 0 130 35" fill="none" xmlns="http://www.w3.org/2000/svg">
<path d="M7.407 28.672H18.447V34H0.687V0.495999H7.407V28.672ZM38.2703 34.336C35.1343 34.336 32.2543 33.6 29.6303 32.128C27.0063 30.656 24.9263 28.624 23.3903 26.032C21.8543 23.408 21.0863 20.448 21.0863 17.152C21.0863 13.888 21.8543 10.96 23.3903 8.368C24.9263 5.744 27.0063 3.696 29.6303 2.224C32.2543 0.751999 35.1343 0.0159998 38.2703 0.0159998C41.4383 0.0159998 44.3183 0.751999 46.9103 2.224C49.5343 3.696 51.5983 5.744 53.1023 8.368C54.6383 10.96 55.4063 13.888 55.4063 17.152C55.4063 20.448 54.6383 23.408 53.1023 26.032C51.5983 28.624 49.5343 30.656 46.9103 32.128C44.2863 33.6 41.4063 34.336 38.2703 34.336ZM38.2703 28.336C40.2863 28.336 42.0623 27.888 43.5983 26.992C45.1343 26.064 46.3343 24.752 47.1983 23.056C48.0623 21.36 48.4943 19.392 48.4943 17.152C48.4943 14.912 48.0623 12.96 47.1983 11.296C46.3343 9.6 45.1343 8.304 43.5983 7.408C42.0623 6.512 40.2863 6.064 38.2703 6.064C36.2543 6.064 34.4623 6.512 32.8943 7.408C31.3583 8.304 30.1583 9.6 29.2943 11.296C28.4303 12.96 27.9983 14.912 27.9983 17.152C27.9983 19.392 28.4303 21.36 29.2943 23.056C30.1583 24.752 31.3583 26.064 32.8943 26.992C34.4623 27.888 36.2543 28.336 38.2703 28.336ZM83.7338 10.576C82.9658 9.168 81.9098 8.096 80.5658 7.36C79.2218 6.624 77.6538 6.256 75.8618 6.256C73.8778 6.256 72.1178 6.704 70.5818 7.6C69.0458 8.496 67.8458 9.776 66.9818 11.44C66.1178 13.104 65.6858 15.024 65.6858 17.2C65.6858 19.44 66.1178 21.392 66.9818 23.056C67.8778 24.72 69.1098 26 70.6778 26.896C72.2458 27.792 74.0698 28.24 76.1498 28.24C78.7098 28.24 80.8058 27.568 82.4377 26.224C84.0698 24.848 85.1418 22.944 85.6538 20.512H74.1338V15.376H92.2778V21.232C91.8298 23.568 90.8698 25.728 89.3978 27.712C87.9258 29.696 86.0218 31.296 83.6858 32.512C81.3818 33.696 78.7898 34.288 75.9098 34.288C72.6778 34.288 69.7498 33.568 67.1258 32.128C64.5338 30.656 62.4858 28.624 60.9818 26.032C59.5098 23.44 58.7738 20.496 58.7738 17.2C58.7738 13.904 59.5098 10.96 60.9818 8.368C62.4858 5.744 64.5338 3.712 67.1258 2.272C69.7498 0.799999 72.6618 0.0639992 75.8618 0.0639992C79.6378 0.0639992 82.9178 0.991999 85.7018 2.848C88.4858 4.672 90.4058 7.248 91.4618 10.576H83.7338ZM112.802 34.336C109.666 34.336 106.786 33.6 104.162 32.128C101.538 30.656 99.4575 28.624 97.9215 26.032C96.3855 23.408 95.6175 20.448 95.6175 17.152C95.6175 13.888 96.3855 10.96 97.9215 8.368C99.4575 5.744 101.538 3.696 104.162 2.224C106.786 0.751999 109.666 0.0159998 112.802 0.0159998C115.97 0.0159998 118.85 0.751999 121.442 2.224C124.066 3.696 126.13 5.744 127.634 8.368C129.17 10.96 129.938 13.888 129.938 17.152C129.938 20.448 129.17 23.408 127.634 26.032C126.13 28.624 124.066 30.656 121.442 32.128C118.818 33.6 115.938 34.336 112.802 34.336ZM112.802 28.336C114.818 28.336 116.594 27.888 118.13 26.992C119.666 26.064 120.866 24.752 121.73 23.056C122.594 21.36 123.026 19.392 123.026 17.152C123.026 14.912 122.594 12.96 121.73 11.296C120.866 9.6 119.666 8.304 118.13 7.408C116.594 6.512 114.818 6.064 112.802 6.064C110.786 6.064 108.994 6.512 107.426 7.408C105.89 8.304 104.69 9.6 103.826 11.296C102.962 12.96 102.53 14.912 102.53 17.152C102.53 19.392 102.962 21.36 103.826 23.056C104.69 24.752 105.89 26.064 107.426 26.992C108.994 27.888 110.786 28.336 112.802 28.336Z" fill="#FCFCFC"/>
</svg>
