<svg width="94" height="26" viewBox="0 0 94 26" fill="none" xmlns="http://www.w3.org/2000/svg">
<path d="M5.20779 21.1719H13.1398V25H0.379607V0.928039H5.20779V21.1719ZM27.3824 25.2414C25.1293 25.2414 23.0601 24.7126 21.1748 23.655C19.2895 22.5974 17.795 21.1375 16.6914 19.2751C15.5879 17.3899 15.0361 15.2632 15.0361 12.895C15.0361 10.5499 15.5879 8.44622 16.6914 6.58391C17.795 4.69862 19.2895 3.22717 21.1748 2.16957C23.0601 1.11197 25.1293 0.583169 27.3824 0.583169C29.6586 0.583169 31.7278 1.11197 33.5901 2.16957C35.4754 3.22717 36.9583 4.69862 38.0389 6.58391C39.1425 8.44622 39.6943 10.5499 39.6943 12.895C39.6943 15.2632 39.1425 17.3899 38.0389 19.2751C36.9583 21.1375 35.4754 22.5974 33.5901 23.655C31.7048 24.7126 29.6356 25.2414 27.3824 25.2414ZM27.3824 20.9305C28.8309 20.9305 30.1069 20.6086 31.2105 19.9649C32.3141 19.2981 33.1763 18.3555 33.797 17.137C34.4178 15.9184 34.7282 14.5044 34.7282 12.895C34.7282 11.2856 34.4178 9.88318 33.797 8.68763C33.1763 7.46908 32.3141 6.53793 31.2105 5.89417C30.1069 5.25042 28.8309 4.92854 27.3824 4.92854C25.934 4.92854 24.6465 5.25042 23.5199 5.89417C22.4163 6.53793 21.5541 7.46908 20.9333 8.68763C20.3126 9.88318 20.0022 11.2856 20.0022 12.895C20.0022 14.5044 20.3126 15.9184 20.9333 17.137C21.5541 18.3555 22.4163 19.2981 23.5199 19.9649C24.6465 20.6086 25.934 20.9305 27.3824 20.9305ZM60.0471 8.17032C59.4953 7.1587 58.7365 6.38849 57.7709 5.85969C56.8053 5.33089 55.6787 5.06649 54.3912 5.06649C52.9657 5.06649 51.7012 5.38836 50.5976 6.03212C49.494 6.67588 48.6318 7.59554 48.0111 8.79109C47.3903 9.98664 47.0799 11.3661 47.0799 12.9295C47.0799 14.5389 47.3903 15.9414 48.0111 17.137C48.6548 18.3325 49.54 19.2522 50.6666 19.8959C51.7932 20.5397 53.1037 20.8616 54.5981 20.8616C56.4374 20.8616 57.9433 20.3787 59.1159 19.4131C60.2885 18.4245 61.0587 17.0565 61.4265 15.3091H53.1496V11.619H66.1857V15.8264C65.8639 17.5048 65.1741 19.0567 64.1165 20.4822C63.0589 21.9077 61.6909 23.0572 60.0126 23.9309C58.3572 24.7816 56.4949 25.2069 54.4257 25.2069C52.1035 25.2069 49.9998 24.6896 48.1145 23.655C46.2522 22.5974 44.7808 21.1375 43.7002 19.2751C42.6426 17.4128 42.1138 15.2976 42.1138 12.9295C42.1138 10.5614 42.6426 8.44622 43.7002 6.58391C44.7808 4.69862 46.2522 3.23867 48.1145 2.20406C49.9998 1.14646 52.092 0.617656 54.3912 0.617656C57.1042 0.617656 59.4608 1.2844 61.461 2.6179C63.4613 3.92841 64.8408 5.77922 65.5995 8.17032H60.0471ZM80.9317 25.2414C78.6785 25.2414 76.6093 24.7126 74.724 23.655C72.8387 22.5974 71.3443 21.1375 70.2407 19.2751C69.1371 17.3899 68.5853 15.2632 68.5853 12.895C68.5853 10.5499 69.1371 8.44622 70.2407 6.58391C71.3443 4.69862 72.8387 3.22717 74.724 2.16957C76.6093 1.11197 78.6785 0.583169 80.9317 0.583169C83.2078 0.583169 85.277 1.11197 87.1393 2.16957C89.0246 3.22717 90.5076 4.69862 91.5882 6.58391C92.6917 8.44622 93.2435 10.5499 93.2435 12.895C93.2435 15.2632 92.6917 17.3899 91.5882 19.2751C90.5076 21.1375 89.0246 22.5974 87.1393 23.655C85.254 24.7126 83.1848 25.2414 80.9317 25.2414ZM80.9317 20.9305C82.3801 20.9305 83.6561 20.6086 84.7597 19.9649C85.8633 19.2981 86.7255 18.3555 87.3462 17.137C87.967 15.9184 88.2774 14.5044 88.2774 12.895C88.2774 11.2856 87.967 9.88318 87.3462 8.68763C86.7255 7.46908 85.8633 6.53793 84.7597 5.89417C83.6561 5.25042 82.3801 4.92854 80.9317 4.92854C79.4832 4.92854 78.1957 5.25042 77.0691 5.89417C75.9655 6.53793 75.1033 7.46908 74.4826 8.68763C73.8618 9.88318 73.5514 11.2856 73.5514 12.895C73.5514 14.5044 73.8618 15.9184 74.4826 17.137C75.1033 18.3555 75.9655 19.2981 77.0691 19.9649C78.1957 20.6086 79.4832 20.9305 80.9317 20.9305Z" fill="#365196"/>
</svg>
