<svg width="13" height="14" viewBox="0 0 13 14" fill="none" xmlns="http://www.w3.org/2000/svg">
<path d="M0.208496 9.04042L4.23415 13.0661L12.9608 4.33938L8.93519 0.313721L0.208496 9.04042ZM4.23415 12.3275L0.947082 9.04042L1.49188 8.49562L2.74366 9.7474L3.11295 9.37811L1.86117 8.12632L2.79772 7.18977L3.52717 7.91922L3.89646 7.54992L3.16702 6.82048L4.10357 5.88393L5.35535 7.13571L5.72464 6.76642L4.47286 5.51464L5.40941 4.57808L6.13886 5.30753L6.50815 4.93824L5.7787 4.20879L6.71526 3.27224L7.96704 4.52402L8.33633 4.15473L7.08455 2.90295L8.0211 1.9664L8.75054 2.69584L9.11984 2.32655L8.39039 1.5971L8.93519 1.05231L12.2223 4.33938L4.23415 12.3275Z" fill="#365196"/>
</svg>
